<svg width="183" height="166" viewBox="0 0 183 166" fill="none" xmlns="http://www.w3.org/2000/svg">
<path d="M127.814 42.5875V52.9118V66.2473L131.651 71.8396L135.489 79.1526L138.474 86.8958L139.753 91.1975H150.414H162.354H163.633L165.765 89.907L166.618 88.6165L167.045 87.3259V83.8845V76.5715V68.8283V61.5153V55.923V50.3307V46.0289V42.1573L167.897 40.8668L169.177 40.0065H170.882H174.294L177.705 39.5763L179.837 39.1461L181.117 37.8556L181.543 35.7047L181.117 33.5538L178.132 30.5426L173.441 25.3804L164.486 15.9166L161.927 13.3355L157.663 9.03372L153.399 4.73195L151.267 2.15089L149.135 0.430177L147.855 0L145.723 0.430177L143.591 2.15089L134.636 11.6148L127.814 18.4976L123.123 23.6597L118.432 28.3917L115.447 31.4029L113.742 33.5538L112.889 35.7047L113.742 37.8556L115.874 39.5763H119.711L125.681 40.0065L126.961 40.8668L127.814 42.5875Z" fill="#F8CD6B"/>
<path fill-rule="evenodd" clip-rule="evenodd" d="M146.377 0.161192C146.122 0.239601 145.66 0.454997 145.351 0.639724C144.798 0.969513 143.856 1.93036 119.043 27.4891C112.606 34.1194 112.891 33.7401 112.891 35.6821C112.891 36.8219 112.902 36.8814 113.262 37.6311C113.894 38.9458 115.057 39.8799 116.419 40.1674C116.772 40.2419 118.451 40.2824 121.191 40.2824C124.101 40.2824 125.542 40.3194 125.816 40.4011C126.35 40.56 126.97 41.1038 127.233 41.6439C127.442 42.0732 127.448 42.2222 127.449 47.2918C127.45 50.1556 127.477 52.5966 127.509 52.7163C127.541 52.836 127.682 52.9856 127.822 53.049C128.172 53.2075 128.452 53.0401 128.53 52.6253C128.564 52.4432 128.578 49.9711 128.56 47.1317L128.528 41.9692L128.231 41.3319C127.888 40.5921 127.165 39.8662 126.441 39.534C125.971 39.3182 125.809 39.3096 121.275 39.2588C116.721 39.2078 116.579 39.2001 116.018 38.976C115.298 38.688 114.588 38.0059 114.207 37.2359C113.953 36.721 113.92 36.5404 113.921 35.6821C113.922 34.8251 113.955 34.6486 114.202 34.1811C114.41 33.7864 118.445 29.5699 130.015 17.6546C147.547 -0.400758 145.972 1.07777 147.665 1.07777C149.375 1.07777 148.887 0.66252 156.916 8.94201C160.76 12.9061 163.972 16.1752 164.054 16.2065C164.281 16.2931 164.689 15.9784 164.689 15.7166C164.689 15.4369 151.132 1.40296 150.274 0.794293C149.253 0.0704131 147.563 -0.204173 146.377 0.161192ZM172.406 24.2823C172.336 24.3659 172.307 24.5384 172.341 24.6657C172.376 24.7929 174.304 26.8521 176.626 29.2417C181.484 34.242 181.512 34.2785 181.505 35.7314C181.502 36.3936 181.45 36.6614 181.234 37.1256C180.86 37.9305 180.315 38.4869 179.52 38.8757L178.839 39.209L174.104 39.2601L169.37 39.3112L168.826 39.5958C168.101 39.9756 167.505 40.5861 167.173 41.2896L166.901 41.8669L166.849 64.6128L166.798 87.3586L166.499 88.0018C166.128 88.8006 165.334 89.5504 164.508 89.8815L163.917 90.1188L157.234 90.1487C151.233 90.1753 150.531 90.1954 150.365 90.3446C150.158 90.5313 150.205 90.8574 150.47 91.0644C150.675 91.2241 162.943 91.2486 163.917 91.0914C165.238 90.8781 166.579 89.9422 167.288 88.7387C167.915 87.6734 167.878 89.1822 167.878 64.7117C167.878 39.9148 167.823 41.8098 168.558 41.0582C169.292 40.3067 169.049 40.3398 174.308 40.2778C179.434 40.2176 179.339 40.2279 180.386 39.6183C180.971 39.2778 181.8 38.3516 182.118 37.6842C182.507 36.8667 182.658 35.8411 182.514 35.0026C182.275 33.6166 182.162 33.4739 177.438 28.6028C173.779 24.8305 173.056 24.1303 172.816 24.1303C172.66 24.1303 172.475 24.1987 172.406 24.2823Z" fill="#219653"/>
<path d="M164.123 105.176V101.775C164.123 99.0537 161.842 96.1058 160.701 94.972L108.937 49.9028C106.655 47.7769 100.894 42.5897 96.1025 38.8481C91.3111 35.1065 84.9796 37.5725 82.4128 39.2732L76.8513 45.651L64.4451 59.2568L52.8944 72.4374L50.3276 75.4136C45.8784 82.5567 49.8998 88.5942 52.4666 90.7201L81.5572 116.231L105.942 137.49C107.938 139.474 112.445 143.783 114.498 145.143C117.065 146.844 118.776 148.12 122.626 148.545C125.706 148.885 129.328 146.702 130.754 145.569L158.134 114.955L163.268 108.578L164.123 105.176Z" fill="#273C37"/>
<path fill-rule="evenodd" clip-rule="evenodd" d="M87.7931 36.0764C85.2612 36.6094 83.2354 37.7232 81.4751 39.5498C80.9975 40.0453 73.8864 48.1379 65.6727 57.5333C55.1629 69.5549 50.5736 74.8786 50.1821 75.5025C48.0036 78.9742 47.729 83.4704 49.4701 87.1589C49.9684 88.2146 50.3292 88.7863 51.1509 89.8228C51.5112 90.2772 62.0857 99.6514 83.4427 118.449C100.909 133.822 115.51 146.651 115.89 146.957C117.236 148.042 118.936 148.882 120.659 149.313C121.897 149.622 124.17 149.7 125.445 149.477C128.203 148.995 130.549 147.751 132.39 145.797C134.271 143.799 162.891 110.968 163.336 110.296C163.957 109.361 164.449 108.34 164.846 107.157L165.148 106.26V103.46V100.661L164.799 99.6576C164.15 97.7891 163.07 96.0577 161.758 94.7844C160.722 93.7797 98.1946 38.8045 97.4082 38.2076C96.0001 37.1388 94.1146 36.3253 92.316 36.0109C91.0633 35.7919 89.0024 35.8217 87.7931 36.0764ZM93.1942 37.2698C94.4449 37.642 95.873 38.3372 96.7386 38.9953C97.8569 39.8454 160.876 95.3342 161.506 96.0236C164.968 99.8114 165.297 105.897 162.262 110.01C161.733 110.728 132.536 144.148 131.503 145.219C129.924 146.856 127.817 147.98 125.517 148.414C124.257 148.652 121.984 148.581 120.796 148.267C119.142 147.831 117.513 147.005 116.403 146.039C116.097 145.773 101.553 132.976 84.0826 117.602C59.3126 95.8048 52.1848 89.4784 51.7105 88.8704C50.0183 86.7011 49.1279 83.5975 49.4193 80.8837C49.6315 78.9076 50.4032 76.8428 51.449 75.4532C51.6955 75.1256 58.7586 67.0153 67.1447 57.4301C77.3561 45.7585 82.634 39.804 83.1245 39.4016C84.0564 38.6371 85.2464 37.9569 86.3561 37.5544C87.8773 37.0024 88.4794 36.914 90.4552 36.9526C92.0272 36.9832 92.362 37.022 93.1942 37.2698ZM69.0856 70.1681C68.9897 70.2744 68.9112 70.4579 68.9112 70.5758C68.9112 70.7286 72.8154 74.2252 82.4654 82.7152C89.9201 89.2738 96.1762 94.7535 96.368 94.8921C96.7004 95.1325 96.7289 95.1361 96.9833 94.9689C97.2953 94.7641 97.3247 94.4852 97.0658 94.1868C96.9039 94 70.7776 71.0136 69.8768 70.2654C69.4661 69.9242 69.3218 69.9065 69.0856 70.1681ZM64.6154 75.3154C64.0456 75.7154 63.7208 75.4038 75.6799 85.9319C81.8941 91.4027 87.0853 95.9502 87.2157 96.0373C87.4279 96.1794 87.4802 96.1779 87.7161 96.023C88.3102 95.6326 88.3982 95.7221 81.2123 89.3984C66.6482 76.5814 65.0137 75.1509 64.933 75.1509C64.8871 75.1509 64.7441 75.2249 64.6154 75.3154ZM100.264 97.7724C100.135 97.956 100.129 98.0447 100.231 98.2326C100.351 98.4535 106.521 103.946 107.021 104.278C107.233 104.418 107.287 104.417 107.522 104.262C108.09 103.889 108.002 103.786 104.346 100.57C101.976 98.4853 100.832 97.5449 100.665 97.5449C100.532 97.5449 100.351 97.6473 100.264 97.7724Z" fill="#219653"/>
<path d="M29.3672 62.5061C51.2848 62.5061 53.0939 62.5193 53.2706 62.6804C53.4892 62.8795 53.5213 63.2466 53.3364 63.4327C53.2396 63.5301 47.7834 63.559 29.4151 63.559C7.41958 63.559 5.60472 63.5458 5.42793 63.3847C5.18116 63.1601 5.18605 62.9781 5.4458 62.7167C5.65376 62.5074 5.79446 62.5061 29.3672 62.5061Z" fill="#219653"/>
<path d="M14.4742 85.038C29.0389 85.038 28.6947 85.0279 28.838 85.4592C28.8669 85.546 28.8312 85.7119 28.7588 85.8277C28.6283 86.0363 28.4977 86.0386 14.6744 86.0671C7.00036 86.083 0.616393 86.0704 0.487826 86.0392C0.166675 85.9612 0.0647916 85.5137 0.306964 85.2444C0.489509 85.0414 0.72124 85.038 14.4742 85.038Z" fill="#219653"/>
<path d="M77.8249 142.432C55.6543 142.432 53.8244 142.445 53.6456 142.606C53.4245 142.805 53.392 143.173 53.579 143.359C53.677 143.456 59.1961 143.485 77.7765 143.485C100.026 143.485 101.862 143.472 102.04 143.311C102.29 143.086 102.285 142.904 102.022 142.643C101.812 142.433 101.67 142.432 77.8249 142.432Z" fill="#219653"/>
<path d="M101.497 164.964C86.7643 164.964 87.1125 164.954 86.9675 165.385C86.9383 165.472 86.9744 165.638 87.0476 165.754C87.1795 165.962 87.3117 165.964 101.295 165.993C109.057 166.009 115.515 165.996 115.645 165.965C115.97 165.887 116.073 165.44 115.828 165.17C115.643 164.967 115.409 164.964 101.497 164.964Z" fill="#219653"/>
<path d="M87.815 50.5634L87.815 50.5633C87.6136 48.4131 89.0126 46.4368 91.1399 45.7644L91.1399 45.7644C91.4969 45.6516 91.9677 45.6076 92.4149 45.6112C92.8659 45.6149 93.3474 45.6677 93.7329 45.7801C95.0262 46.157 96.02 47.0389 96.6251 48.3117L96.6252 48.3118C96.7731 48.623 96.8782 48.8632 96.9346 49.1609C96.9882 49.4443 96.9936 49.7604 96.9934 50.2167L87.815 50.5634ZM87.815 50.5634C88.1395 54.0256 91.8616 55.908 94.8486 54.1247L87.815 50.5634ZM96.625 52.1115L96.625 52.1115C96.1861 53.0218 95.6407 53.6519 94.8487 54.1247L96.625 52.1115ZM96.625 52.1115C96.7725 51.8055 96.8779 51.5678 96.9344 51.2708M96.625 52.1115L96.9344 51.2708M96.9344 51.2708C96.9879 50.989 96.9933 50.673 96.9934 50.2168L96.9344 51.2708ZM88.3128 50.5167L88.3127 50.5167L88.3128 50.5167Z" fill="#273C37" stroke="#219653"/>
<path d="M143.697 96.018C143.6 95.8208 143.606 95.7278 143.727 95.535C143.809 95.4038 143.979 95.2964 144.104 95.2964C144.261 95.2964 145.338 96.2831 147.569 98.4707C151.01 101.845 151.094 101.953 150.558 102.345C150.337 102.507 150.286 102.509 150.087 102.362C149.616 102.013 143.81 96.2497 143.697 96.018Z" fill="#273C37"/>
<path d="M52.4284 117.84C52.4284 127.46 44.6293 135.259 35.0086 135.259C25.3879 135.259 17.5889 127.46 17.5889 117.84C17.5889 108.219 25.3879 100.42 35.0086 100.42C44.6293 100.42 52.4284 108.219 52.4284 117.84Z" fill="#273C37"/>
<path d="M31.1502 124.98L29.172 112.756L31.9072 112.274L37.1914 119.478L35.9113 111.568L38.4653 111.118L40.4435 123.341L37.7082 123.823L32.424 116.619L33.7042 124.529L31.1502 124.98Z" fill="#219653"/>
<path d="M28.7059 118.603L28.3483 116.394L40.2488 114.295L40.6064 116.505L28.7059 118.603ZM29.2903 122.214L28.9327 120.005L40.8331 117.906L41.1908 120.116L29.2903 122.214Z" fill="#219653"/>
<path fill-rule="evenodd" clip-rule="evenodd" d="M32.2168 99.4749C31.121 99.6453 29.2246 100.172 28.1261 100.61C25.7642 101.554 23.7955 102.868 21.9277 104.75C19.3313 107.365 17.6393 110.498 16.8665 114.122C16.4968 115.855 16.4651 119.382 16.804 121.07C17.3182 123.63 18.2804 125.978 19.6762 128.079C20.6985 129.618 23.1147 132.046 24.5976 133.024C27.8899 135.197 31.105 136.174 34.9725 136.176C37.2418 136.177 38.6062 135.978 40.5052 135.37C42.8398 134.623 43.3235 134.281 42.9188 133.663C42.6685 133.281 42.547 133.282 41.6776 133.666C39.6459 134.564 36.8332 135.06 34.3424 134.96C26.3162 134.636 19.8091 129.106 18.0672 121.13C17.7404 119.633 17.7378 115.849 18.0627 114.364C19.5819 107.416 24.7313 102.298 31.6719 100.839C33.3895 100.477 36.3278 100.452 38.0604 100.785C43.5477 101.837 47.9839 105.182 50.4576 110.134C51.4431 112.107 52.0099 114.285 52.249 117.019C52.3144 117.767 52.3631 117.895 52.6278 118.015C52.8765 118.129 52.98 118.11 53.2001 117.913C53.4503 117.689 53.4637 117.587 53.3978 116.413C53.1658 112.28 51.3621 108.198 48.3952 105.091C45.7891 102.361 42.645 100.565 38.959 99.7005C38.1136 99.5022 37.324 99.4358 35.4137 99.4027C34.0619 99.3791 32.6234 99.4116 32.2168 99.4749ZM32.0737 103.461C29.3791 104.072 26.9052 105.376 24.9903 107.194C21.8662 110.161 20.2009 114.352 20.4608 118.596C20.5492 120.042 20.7321 120.507 21.2124 120.507C21.7482 120.507 21.7913 120.332 21.7123 118.484C21.6291 116.539 21.7678 115.369 22.2711 113.768C23.3756 110.254 26.0263 107.205 29.2848 105.701C30.2659 105.248 32.229 104.634 32.6985 104.634C33.2392 104.634 33.608 103.888 33.2459 103.526C33.0973 103.377 32.571 103.348 32.0737 103.461Z" fill="#219653"/>
</svg>
