<svg width="1528" height="525" viewBox="0 0 1528 525" fill="none" xmlns="http://www.w3.org/2000/svg">
<path d="M-761.705 752.904L32.6334 -46.3016" stroke="#1B8448" stroke-width="22"/>
<g opacity="0.5" filter="url(#filter0_f_182_344)">
<path d="M-342.384 693.554L451.954 -105.651" stroke="#1B8448" stroke-width="22"/>
</g>
<g opacity="0.5" filter="url(#filter1_f_182_344)">
<path d="M-127.705 634.205L666.633 -165" stroke="#1B8448" stroke-width="22"/>
</g>
<g opacity="0.5" filter="url(#filter2_f_182_344)">
<path d="M187.295 684.205L981.633 -115" stroke="#1B8448" stroke-width="22"/>
</g>
<g opacity="0.1" filter="url(#filter3_f_182_344)">
<path d="M-371.705 661.205L422.633 -138" stroke="#1B8448" stroke-width="22"/>
</g>
<g opacity="0.05" filter="url(#filter4_f_182_344)">
<path d="M-388.853 540.646L443.499 -294L462.35 -275.149L-384.499 545L-388.853 540.646Z" fill="black"/>
</g>
<g opacity="0.05" filter="url(#filter5_f_182_344)">
<path d="M119.147 535.646L951.499 -299L970.35 -280.149L123.501 540L119.147 535.646Z" fill="black"/>
</g>
<path d="M222.295 760.904L1016.63 -38.3016" stroke="#1B8448" stroke-width="22"/>
<path d="M641.616 701.554L1435.95 -97.6508" stroke="#1B8448" stroke-width="22"/>
<path d="M856.295 642.205L1650.63 -157" stroke="#1B8448" stroke-width="22"/>
<path d="M1171.3 692.205L1965.63 -107" stroke="#1B8448" stroke-width="22"/>
<path d="M869.177 97.2724C873.779 92.6701 882.134 91.3226 888.01 94.2352L1117.5 208.004C1118.17 208.334 1118.78 208.712 1119.34 209.133L1120.92 210.313C1121.96 211.098 1122.81 212.026 1123.41 213.054L1124.8 215.452C1126.71 218.731 1125.97 222.695 1122.88 225.793L842.937 505.733C838.25 510.419 829.697 511.717 823.832 508.631L594.62 388.037C588.755 384.951 587.799 378.65 592.485 373.964L869.177 97.2724Z" fill="#CD531B"/>
<rect width="279.438" height="417.656" rx="12" transform="matrix(0.884988 0.465614 -0.707107 0.707107 882.327 84.1222)" fill="#ED682C"/>
<path d="M772 444.5L1029 190L1075.5 212L821 471L772 444.5Z" fill="#DF5E24"/>
<path d="M625 367.5L882 113L889 117.5L633.5 372L625 367.5Z" fill="#DF5E24"/>
<path d="M640 378.5L757 262L764 266.5L648.5 383L640 378.5Z" fill="#DF5E24"/>
<path d="M1460.18 27.1502C1464.78 22.5479 1473.13 21.2004 1479.01 24.113L1708.5 137.882C1709.17 138.212 1709.78 138.59 1710.34 139.011L1711.92 140.191C1712.96 140.976 1713.81 141.904 1714.41 142.932L1715.8 145.33C1717.71 148.609 1716.97 152.573 1713.88 155.671L1433.94 435.611C1429.25 440.297 1420.7 441.594 1414.83 438.509L1185.62 317.915C1179.75 314.829 1178.8 308.528 1183.49 303.842L1460.18 27.1502Z" fill="#CD531B"/>
<rect width="279.438" height="417.656" rx="12" transform="matrix(0.884988 0.465614 -0.707107 0.707107 1473.33 14)" fill="#ED682C"/>
<path d="M1363 374.378L1620 119.878L1666.5 141.878L1412 400.878L1363 374.378Z" fill="#DF5E24"/>
<path d="M1216 297.5L1473 43L1480 47.5L1224.5 302L1216 297.5Z" fill="#DF5E24"/>
<path d="M1231 308.5L1348 192L1355 196.5L1239.5 313L1231 308.5Z" fill="#DF5E24"/>
<g opacity="0.1" filter="url(#filter6_f_182_344)">
<path d="M612.295 669.205L1406.63 -130" stroke="#1B8448" stroke-width="22"/>
</g>
<g opacity="0.05" filter="url(#filter7_f_182_344)">
<path d="M595.147 548.646L1427.5 -286L1446.35 -267.149L599.501 553L595.147 548.646Z" fill="black"/>
</g>
<g opacity="0.05" filter="url(#filter8_f_182_344)">
<path d="M1103.15 543.646L1935.5 -291L1954.35 -272.149L1107.5 548L1103.15 543.646Z" fill="black"/>
</g>
<path d="M1032.1 2.59784C1064.98 -32.2951 1120.67 -61.0116 1143.45 -71.9597L1278.41 -3.40469L1278.77 -1.06742C1259.5 3.22832 1212.48 21.0974 1178.63 58.2075C1149.21 89.8518 1082.35 130.447 1049.49 146.67L909.785 73.2604L909.425 70.9231C909.425 70.9231 997.821 38.9768 1032.1 2.59784Z" fill="#187941"/>
<path d="M1031.74 0.260555C1066.16 -33.11 1120.31 -63.3489 1143.09 -74.297L1278.41 -3.4047C1259.14 0.891041 1212.12 18.7601 1178.27 55.8702C1148.85 87.5146 1081.99 128.11 1049.13 144.332L909.425 70.9231C935.854 61.2733 997.317 33.6311 1031.74 0.260555Z" fill="#28AA5F"/>
<path d="M944.245 74.3378C985.044 53.3846 1016.46 30.5259 1027.07 21.7158C1018.53 74.0712 1089.28 83.921 1125.71 82.3015C1107.74 102.295 1066.32 123.076 1047.87 130.968L944.245 74.3378Z" fill="#30BF6C"/>
<path d="M1249.89 -2.20497C1209.09 18.7482 1183.01 39.9885 1172.4 48.7987C1164.13 -4.95845 1099.58 -14.9643 1061.41 -9.08969C1079.38 -29.0831 1123.67 -51.9022 1142.13 -59.7937L1249.89 -2.20497Z" fill="#30BF6C"/>
<path d="M1011.07 88.7784C1008.49 77.212 1016.7 73.556 1026.83 71.9973C1035.4 70.6784 1047.56 71.9965 1048.88 80.5665C1050.03 88.0458 1040.53 91.9536 1035.64 92.9726C1028.15 94.3912 1012.96 97.2605 1011.07 88.7784Z" fill="#28AA5F"/>
<path d="M1143.32 -5.74435C1140.74 -17.3108 1148.95 -20.9668 1159.08 -22.5254C1167.65 -23.8443 1179.82 -22.5262 1181.14 -13.9563C1182.29 -6.477 1172.79 -2.56918 1167.89 -1.55018C1160.4 -0.131537 1145.21 2.73771 1143.32 -5.74435Z" fill="#28AA5F"/>
<path d="M1071.1 466.598C1103.98 431.705 1159.67 402.988 1182.45 392.04L1317.41 460.595L1317.77 462.932C1298.5 467.228 1251.48 485.097 1217.63 522.207C1188.21 553.852 1121.35 594.447 1088.49 610.669L948.785 537.26L948.425 534.923C948.425 534.923 1036.82 502.977 1071.1 466.598Z" fill="#187941"/>
<path d="M1070.74 464.26C1105.16 430.89 1159.31 400.651 1182.09 389.703L1317.41 460.595C1298.14 464.891 1251.12 482.76 1217.27 519.87C1187.85 551.514 1120.99 592.11 1088.13 608.332L948.425 534.923C974.854 525.273 1036.32 497.631 1070.74 464.26Z" fill="#28AA5F"/>
<path d="M983.245 538.338C1024.04 517.384 1055.46 494.526 1066.07 485.716C1057.53 538.071 1128.28 547.921 1164.71 546.301C1146.74 566.295 1105.32 587.076 1086.87 594.968L983.245 538.338Z" fill="#30BF6C"/>
<path d="M1288.89 461.795C1248.09 482.748 1222.01 503.988 1211.4 512.799C1203.13 459.041 1138.58 449.035 1100.41 454.91C1118.38 434.917 1162.67 412.098 1181.13 404.206L1288.89 461.795Z" fill="#30BF6C"/>
<path d="M1182.32 458.256C1179.74 446.689 1187.95 443.033 1198.08 441.474C1206.65 440.156 1218.82 441.474 1220.14 450.044C1221.29 457.523 1211.79 461.431 1206.89 462.45C1199.4 463.868 1184.21 466.738 1182.32 458.256Z" fill="#28AA5F"/>
<path d="M1068.78 6.34306C1098.69 -31.1284 1151.84 -64.3153 1173.64 -77.094L1313.77 -19.837L1314.32 -17.5371C1295.46 -11.6751 1250.07 9.98918 1219.38 49.7498C1192.65 83.7004 1129.34 129.642 1097.92 148.504L952.672 86.7975L952.122 84.4976C952.122 84.4976 1037.6 45.4104 1068.78 6.34306Z" fill="#187941"/>
<path d="M1068.23 4.04313C1099.8 -32.0377 1151.29 -66.6152 1173.09 -79.3939L1313.77 -19.837C1294.91 -13.975 1249.52 7.68925 1218.83 47.4499C1192.1 81.4005 1128.79 127.342 1097.37 146.204L952.122 84.4975C977.671 72.7131 1036.66 40.1239 1068.23 4.04313Z" fill="#28AA5F"/>
<path d="M987.104 85.0455C1026.05 60.8173 1055.48 35.4597 1065.33 25.8094C1061.12 78.6881 1132.43 82.7039 1168.62 78.1019C1152.34 99.5023 1112.77 123.609 1095.02 132.988L987.104 85.0455Z" fill="#30BF6C"/>
<path d="M1285.44 -16.3021C1246.5 7.92608 1222.24 31.2335 1212.4 40.8838C1199.74 -12.014 1134.59 -16.6935 1097.03 -7.7082C1113.31 -29.1085 1155.57 -55.4824 1173.32 -64.8609L1285.44 -16.3021Z" fill="#30BF6C"/>
<path d="M1054.89 93.958C1051.37 82.6418 1059.25 78.3249 1069.22 75.941C1077.65 73.9238 1089.88 74.2399 1091.9 82.6728C1093.66 90.0325 1084.51 94.7063 1079.72 96.1232C1072.37 98.1513 1057.47 102.256 1054.89 93.958Z" fill="#28AA5F"/>
<path d="M1107.78 470.343C1137.69 432.871 1190.84 399.685 1212.64 386.906L1352.77 444.163L1353.32 446.463C1334.46 452.325 1289.07 473.989 1258.38 513.75C1231.65 547.7 1168.34 593.642 1136.92 612.504L991.672 550.797L991.122 548.497C991.122 548.497 1076.6 509.41 1107.78 470.343Z" fill="#187941"/>
<path d="M1107.23 468.043C1138.8 431.962 1190.29 397.385 1212.09 384.606L1352.77 444.163C1333.91 450.025 1288.52 471.689 1257.83 511.45C1231.1 545.4 1167.79 591.342 1136.37 610.204L991.122 548.497C1016.67 536.713 1075.66 504.124 1107.23 468.043Z" fill="#28AA5F"/>
<path d="M1026.1 549.045C1065.05 524.817 1094.48 499.459 1104.33 489.809C1100.12 542.688 1171.43 546.704 1207.62 542.102C1191.34 563.502 1151.77 587.609 1134.02 596.988L1026.1 549.045Z" fill="#30BF6C"/>
<path d="M1324.44 447.698C1285.5 471.926 1261.24 495.233 1251.4 504.884C1238.74 451.986 1173.59 447.306 1136.03 456.292C1152.31 434.891 1194.57 408.518 1212.32 399.139L1324.44 447.698Z" fill="#30BF6C"/>
<path d="M1217.94 452.909C1214.42 441.593 1222.31 437.276 1232.27 434.892C1240.71 432.875 1252.94 433.191 1254.96 441.624C1256.72 448.983 1247.57 453.657 1242.77 455.074C1235.42 457.102 1220.52 461.207 1217.94 452.909Z" fill="#28AA5F"/>
<defs>
<filter id="filter0_f_182_344" x="-355.186" y="-118.405" width="819.942" height="824.714" filterUnits="userSpaceOnUse" color-interpolation-filters="sRGB">
<feFlood flood-opacity="0" result="BackgroundImageFix"/>
<feBlend mode="normal" in="SourceGraphic" in2="BackgroundImageFix" result="shape"/>
<feGaussianBlur stdDeviation="2.5" result="effect1_foregroundBlur_182_344"/>
</filter>
<filter id="filter1_f_182_344" x="-140.507" y="-177.754" width="819.942" height="824.714" filterUnits="userSpaceOnUse" color-interpolation-filters="sRGB">
<feFlood flood-opacity="0" result="BackgroundImageFix"/>
<feBlend mode="normal" in="SourceGraphic" in2="BackgroundImageFix" result="shape"/>
<feGaussianBlur stdDeviation="2.5" result="effect1_foregroundBlur_182_344"/>
</filter>
<filter id="filter2_f_182_344" x="174.493" y="-127.754" width="819.942" height="824.714" filterUnits="userSpaceOnUse" color-interpolation-filters="sRGB">
<feFlood flood-opacity="0" result="BackgroundImageFix"/>
<feBlend mode="normal" in="SourceGraphic" in2="BackgroundImageFix" result="shape"/>
<feGaussianBlur stdDeviation="2.5" result="effect1_foregroundBlur_182_344"/>
</filter>
<filter id="filter3_f_182_344" x="-389.507" y="-155.754" width="829.942" height="834.714" filterUnits="userSpaceOnUse" color-interpolation-filters="sRGB">
<feFlood flood-opacity="0" result="BackgroundImageFix"/>
<feBlend mode="normal" in="SourceGraphic" in2="BackgroundImageFix" result="shape"/>
<feGaussianBlur stdDeviation="5" result="effect1_foregroundBlur_182_344"/>
</filter>
<filter id="filter4_f_182_344" x="-398.853" y="-304" width="871.203" height="859" filterUnits="userSpaceOnUse" color-interpolation-filters="sRGB">
<feFlood flood-opacity="0" result="BackgroundImageFix"/>
<feBlend mode="normal" in="SourceGraphic" in2="BackgroundImageFix" result="shape"/>
<feGaussianBlur stdDeviation="5" result="effect1_foregroundBlur_182_344"/>
</filter>
<filter id="filter5_f_182_344" x="109.147" y="-309" width="871.203" height="859" filterUnits="userSpaceOnUse" color-interpolation-filters="sRGB">
<feFlood flood-opacity="0" result="BackgroundImageFix"/>
<feBlend mode="normal" in="SourceGraphic" in2="BackgroundImageFix" result="shape"/>
<feGaussianBlur stdDeviation="5" result="effect1_foregroundBlur_182_344"/>
</filter>
<filter id="filter6_f_182_344" x="594.493" y="-147.754" width="829.942" height="834.714" filterUnits="userSpaceOnUse" color-interpolation-filters="sRGB">
<feFlood flood-opacity="0" result="BackgroundImageFix"/>
<feBlend mode="normal" in="SourceGraphic" in2="BackgroundImageFix" result="shape"/>
<feGaussianBlur stdDeviation="5" result="effect1_foregroundBlur_182_344"/>
</filter>
<filter id="filter7_f_182_344" x="585.147" y="-296" width="871.203" height="859" filterUnits="userSpaceOnUse" color-interpolation-filters="sRGB">
<feFlood flood-opacity="0" result="BackgroundImageFix"/>
<feBlend mode="normal" in="SourceGraphic" in2="BackgroundImageFix" result="shape"/>
<feGaussianBlur stdDeviation="5" result="effect1_foregroundBlur_182_344"/>
</filter>
<filter id="filter8_f_182_344" x="1093.15" y="-301" width="871.203" height="859" filterUnits="userSpaceOnUse" color-interpolation-filters="sRGB">
<feFlood flood-opacity="0" result="BackgroundImageFix"/>
<feBlend mode="normal" in="SourceGraphic" in2="BackgroundImageFix" result="shape"/>
<feGaussianBlur stdDeviation="5" result="effect1_foregroundBlur_182_344"/>
</filter>
</defs>
</svg>
