<svg width="275" height="59" viewBox="0 0 275 59" fill="none" xmlns="http://www.w3.org/2000/svg">
    <defs>
        <linearGradient id="paint0_linear_1112_16568" x1="9.80892" y1="21.7199" x2="1.6861" y2="27.2284" gradientUnits="userSpaceOnUse">
            <stop offset="0.113058" stop-color="#438946"/>
            <stop offset="1" stop-color="#60B863" stop-opacity="0"/>
        </linearGradient>
        <linearGradient id="paint1_linear_1112_16568" x1="9.8089" y1="23.1214" x2="19.2388" y2="9.4958" gradientUnits="userSpaceOnUse">
            <stop stop-color="#438946"/>
            <stop offset="1" stop-color="#60B863" stop-opacity="0"/>
        </linearGradient>
        <linearGradient id="paint2_linear_1112_16568" x1="12.6114" y1="38.5349" x2="13.824" y2="19.7971" gradientUnits="userSpaceOnUse">
            <stop stop-color="#438946"/>
            <stop offset="1" stop-color="#60B863" stop-opacity="0"/>
        </linearGradient>
        <linearGradient id="paint3_linear_1112_16568" x1="19.2675" y1="43.0892" x2="19.7698" y2="52.4646" gradientUnits="userSpaceOnUse">
            <stop stop-color="#438946"/>
            <stop offset="1" stop-color="#60B863" stop-opacity="0"/>
        </linearGradient>
        <linearGradient id="paint4_linear_1112_16568" x1="35.0318" y1="49.7454" x2="18.2165" y2="40.9874" gradientUnits="userSpaceOnUse">
            <stop stop-color="#438946"/>
            <stop offset="1" stop-color="#60B863" stop-opacity="0"/>
        </linearGradient>
        <linearGradient id="paint5_linear_1112_16568" x1="36.4332" y1="50.446" x2="49.0446" y2="51.1467" gradientUnits="userSpaceOnUse">
            <stop stop-color="#438946"/>
            <stop offset="1" stop-color="#60B863" stop-opacity="0"/>
        </linearGradient>
    </defs>
<path d="M26.7377 58.1308C23.1698 57.8739 20.1149 55.648 18.8119 52.276L14.9729 42.3476L4.79682 36.8132C1.35717 34.9424 -0.482166 31.25 0.10957 27.4102C0.645921 23.9256 3.05659 21.1512 6.37381 20.0917C5.51389 17.6522 5.73252 14.973 6.98303 12.6952C8.28019 10.3394 10.5451 8.67071 13.1948 8.11929L51.2029 0.203136C54.5114 -0.486858 57.8169 0.604429 60.0468 3.11901C62.2768 5.63359 62.9414 9.02293 61.825 12.1813L48.9321 48.6528C48.0314 51.1963 46.058 53.2085 43.5161 54.1756C40.9743 55.1399 38.1468 54.9494 35.7624 53.6531L35.4884 53.5058C33.9085 56.3149 30.9673 58.0904 27.6122 58.1539C27.3207 58.1597 27.0263 58.151 26.7377 58.1308ZM22.1903 46.271L23.7819 50.3908C24.6943 52.7495 26.8688 52.8938 27.5131 52.8823C28.0873 52.8707 29.8654 52.6917 30.8303 50.9711L22.1903 46.271ZM37.3685 48.5113L38.3246 49.031C39.3361 49.5824 40.5341 49.6633 41.6127 49.2533C42.6912 48.8433 43.5278 47.9917 43.9067 46.9119L56.7996 10.4404C57.2718 9.10088 56.992 7.66604 56.0446 6.59784C55.1002 5.53254 53.6981 5.07062 52.296 5.36221L14.2937 13.2784C13.1686 13.5122 12.2095 14.2195 11.6615 15.2184C11.1106 16.2173 11.0319 17.3981 11.4429 18.4605L11.6411 18.9773L34.4069 14.4332C37.6862 13.7778 40.9656 14.8749 43.1751 17.3635C45.3846 19.8521 46.058 23.2125 44.9824 26.3507L37.3685 48.5113ZM19.2462 38.6551L32.6317 45.9332L39.9395 24.6532C40.3971 23.3222 40.1115 21.899 39.1729 20.8423C38.2372 19.7857 36.8467 19.3238 35.4563 19.6009L13.5708 23.9718L19.2462 38.6551ZM8.28019 25.0314C5.95405 25.5943 5.46725 27.5921 5.37398 28.2071C5.27778 28.8364 5.13204 30.9815 7.36197 32.194L12.0317 34.7317L8.28019 25.0314Z" fill="#60B863"/>
<path d="M0.10957 27.4103C-0.482166 31.2501 1.35717 34.9425 4.79682 36.8133L7.36198 32.1941C5.13204 30.9816 5.27778 28.8365 5.37398 28.2072C5.46726 27.5922 5.95405 25.5944 8.28019 25.0315L6.37381 20.0918C3.05659 21.1513 0.645921 23.9257 0.10957 27.4103Z" fill="url(#paint0_linear_1112_16568)"/>
<path d="M34.4069 14.4336L11.6411 18.9777L13.5708 23.9722L35.4563 19.6013L34.4069 14.4336Z" fill="url(#paint1_linear_1112_16568)"/>
<path d="M19.2462 38.655L13.5708 23.9717L8.28015 25.0312L12.0317 34.7315L19.2462 38.655Z" fill="url(#paint2_linear_1112_16568)"/>
<path d="M14.9729 42.3477L18.8119 52.2761L23.7819 50.3908L22.1903 46.2711L14.9729 42.3477Z" fill="url(#paint3_linear_1112_16568)"/>
<path d="M22.1903 46.2712L30.8302 50.9712L32.6317 45.9334L19.2462 38.6553L22.1903 46.2712Z" fill="url(#paint4_linear_1112_16568)"/>
<path d="M43.5162 54.1758C46.058 53.2087 48.0314 51.1964 48.9322 48.653L43.9068 46.9121C43.5278 47.9918 42.6913 48.8435 41.6127 49.2535C40.5342 49.6634 39.3361 49.5826 38.3247 49.0312L37.3686 48.5115L35.4884 53.506L35.7624 53.6533C38.1468 54.9495 40.9743 55.1401 43.5162 54.1758Z" fill="url(#paint5_linear_1112_16568)"/>
<path d="M91.6212 45.9241L90.2579 41.4837H76.6751L75.3117 45.9241H69L80.9165 11H86.0164L97.9329 45.9241H91.6212ZM78.1899 36.3449H88.6926L83.4412 19.0325L78.1899 36.3449Z" fill="white"/>
<path d="M115.583 22.0759C118.949 22.0759 121.659 23.2068 123.712 25.4685C125.765 27.697 126.792 30.6406 126.792 34.2993C126.792 37.8915 125.715 40.8351 123.561 43.1302C121.406 45.3919 118.629 46.5228 115.229 46.5228C113.681 46.5228 112.216 46.1902 110.836 45.5249C109.456 44.8265 108.412 43.9118 107.705 42.7809V56.4013H102.202V22.6746H107.705V25.8178C108.412 24.6869 109.49 23.7889 110.937 23.1236C112.385 22.4252 113.933 22.0759 115.583 22.0759ZM114.421 41.6833C116.441 41.6833 118.09 41.0014 119.37 39.6377C120.649 38.2408 121.288 36.4613 121.288 34.2993C121.288 32.1374 120.649 30.3745 119.37 29.0108C118.09 27.6139 116.441 26.9154 114.421 26.9154C112.334 26.9154 110.651 27.5973 109.372 28.961C108.093 30.3247 107.453 32.1041 107.453 34.2993C107.453 36.4946 108.093 38.274 109.372 39.6377C110.651 41.0014 112.334 41.6833 114.421 41.6833Z" fill="white"/>
<path d="M153.392 33.102C153.392 33.7007 153.342 34.6985 153.241 36.0954H135.77C135.837 37.9248 136.443 39.3384 137.588 40.3362C138.732 41.3008 140.314 41.7831 142.334 41.7831C144.926 41.7831 146.676 40.9017 147.585 39.1388H153.14C152.769 41.3008 151.574 43.0803 149.555 44.4772C147.568 45.8409 145.162 46.5228 142.334 46.5228C138.631 46.5228 135.702 45.4252 133.548 43.2299C131.394 41.0347 130.316 38.0578 130.316 34.2993C130.316 30.5741 131.377 27.6139 133.498 25.4187C135.652 23.1902 138.53 22.0759 142.132 22.0759C145.498 22.0759 148.208 23.107 150.261 25.1692C152.349 27.1981 153.392 29.8424 153.392 33.102ZM135.77 31.9544H147.989C147.956 30.1584 147.417 28.778 146.373 27.8134C145.364 26.8489 143.916 26.3666 142.031 26.3666C140.112 26.3666 138.597 26.8821 137.487 27.9132C136.376 28.9443 135.803 30.2914 135.77 31.9544Z" fill="white"/>
<path d="M154.942 45.9241L163.627 34.1996L155.094 22.6746H161.91L166.808 30.2082L171.706 22.6746H178.523L169.989 34.1996L178.674 45.9241H171.857L166.808 38.141L161.759 45.9241H154.942Z" fill="white"/>
<path d="M196.106 22.0759C199.473 22.0759 202.182 23.2068 204.236 25.4685C206.289 27.697 207.316 30.6406 207.316 34.2993C207.316 37.8915 206.239 40.8351 204.084 43.1302C201.93 45.3919 199.153 46.5228 195.753 46.5228C194.204 46.5228 192.74 46.1902 191.36 45.5249C189.98 44.8265 188.936 43.9118 188.229 42.7809V56.4013H182.725V22.6746H188.229V25.8178C188.936 24.6869 190.013 23.7889 191.461 23.1236C192.908 22.4252 194.457 22.0759 196.106 22.0759ZM194.945 41.6833C196.965 41.6833 198.614 41.0014 199.893 39.6377C201.173 38.2408 201.812 36.4613 201.812 34.2993C201.812 32.1374 201.173 30.3745 199.893 29.0108C198.614 27.6139 196.965 26.9154 194.945 26.9154C192.858 26.9154 191.175 27.5973 189.896 28.961C188.616 30.3247 187.977 32.1041 187.977 34.2993C187.977 36.4946 188.616 38.274 189.896 39.6377C191.175 41.0014 192.858 41.6833 194.945 41.6833Z" fill="white"/>
<path d="M222.403 46.5228C218.734 46.5228 215.89 45.3753 213.87 43.0803C211.85 40.7853 210.84 37.8583 210.84 34.2993C210.84 30.7737 211.901 27.8633 214.021 25.5683C216.142 23.2401 218.987 22.0759 222.555 22.0759C224.137 22.0759 225.584 22.4085 226.897 23.0738C228.21 23.739 229.22 24.6537 229.927 25.8178V22.6746H235.431V45.9241H229.927V42.7809C229.254 43.9118 228.193 44.8265 226.746 45.5249C225.332 46.1902 223.884 46.5228 222.403 46.5228ZM223.211 41.6833C225.467 41.6833 227.183 40.9848 228.362 39.5879C229.573 38.1909 230.179 36.4281 230.179 34.2993C230.179 32.1706 229.573 30.4078 228.362 29.0108C227.183 27.6139 225.467 26.9154 223.211 26.9154C221.09 26.9154 219.407 27.6139 218.162 29.0108C216.95 30.3745 216.344 32.1374 216.344 34.2993C216.344 36.4613 216.95 38.2408 218.162 39.6377C219.407 41.0014 221.09 41.6833 223.211 41.6833Z" fill="white"/>
<path d="M258.496 22.6746H264V46.0239C264 49.5828 262.973 52.3435 260.92 54.3059C258.934 56.102 256.274 57 252.942 57C249.475 57 246.782 56.2017 244.863 54.6052C243.18 53.1417 242.304 51.1294 242.237 48.5683H247.791C247.926 49.8988 248.364 50.88 249.104 51.5119C249.879 52.1772 251.124 52.5098 252.841 52.5098C254.591 52.5098 255.971 51.9443 256.981 50.8134C257.991 49.7158 258.496 47.9863 258.496 45.6247V42.6811C256.981 45.2422 254.457 46.5228 250.922 46.5228C248.128 46.5228 245.974 45.6414 244.459 43.8785C242.978 42.0824 242.237 39.7375 242.237 36.8438V22.6746H247.741V35.6963C247.741 39.7209 249.441 41.7332 252.841 41.7332C254.692 41.7332 256.089 41.0846 257.032 39.7874C258.008 38.4902 258.496 36.7939 258.496 34.6985V22.6746Z" fill="white"/>
<path fill-rule="evenodd" clip-rule="evenodd" d="M271 23.6364C269.193 23.6364 267.727 24.9185 267.727 26.5C267.727 28.0815 269.193 29.3636 271 29.3636C272.807 29.3636 274.273 28.0815 274.273 26.5C274.273 24.9185 272.807 23.6364 271 23.6364ZM267 26.5C267 24.567 268.791 23 271 23C273.209 23 275 24.567 275 26.5C275 28.433 273.209 30 271 30C268.791 30 267 28.433 267 26.5Z" fill="white"/>
<path d="M272 26.05C272 26.2814 271.945 26.4843 271.835 26.6586C271.728 26.8329 271.584 26.9571 271.402 27.0314L271.956 28H271.43L270.916 27.1H270.462V28H270V25H271.036C271.317 25 271.548 25.0986 271.727 25.2957C271.909 25.4929 272 25.7443 272 26.05ZM270.462 25.4414V26.6586H271.008C271.161 26.6586 271.286 26.6014 271.386 26.4871C271.487 26.37 271.538 26.2243 271.538 26.05C271.538 25.8757 271.487 25.7314 271.386 25.6171C271.286 25.5 271.161 25.4414 271.008 25.4414H270.462Z" fill="white"/>
<path fill-rule="evenodd" clip-rule="evenodd" d="M271.343 27.8696L270.902 27.0478H270.512V27.8696H270.115V25.1304H271.005C271.247 25.1304 271.444 25.2204 271.598 25.4004C271.755 25.5804 271.833 25.81 271.833 26.0891C271.833 26.3004 271.786 26.4857 271.692 26.6448C271.621 26.7665 271.532 26.8615 271.424 26.9298C271.391 26.9508 271.356 26.9693 271.319 26.9852L271.795 27.8696H271.343ZM271.484 27.0412L272 28H271.279L270.837 27.1783H270.627V28H270V25H271.005C271.274 25 271.503 25.1017 271.681 25.3092C271.86 25.5162 271.948 25.7798 271.948 26.0891C271.948 26.3233 271.895 26.5342 271.787 26.7169C271.708 26.8545 271.606 26.963 271.484 27.0412ZM270.627 26.6448V26.5143H270.981C271.082 26.5143 271.159 26.476 271.221 26.3997C271.287 26.3191 271.321 26.2186 271.321 26.0891C271.321 25.9596 271.287 25.8612 271.222 25.7837L271.22 25.7813C271.157 25.7028 271.081 25.6639 270.981 25.6639H270.627V25.5335H270.512V25.6639H270.627V26.5143H270.512V26.6448H270.627Z" fill="white"/>
</svg>
