<svg id="Layer_1" data-name="Layer 1" xmlns="http://www.w3.org/2000/svg" viewBox="0 0 865.32 163.41"><defs><style>.cls-1{font-size:127.25px;font-family:Montserrat-ExtraBold, Montserrat;font-weight:800;letter-spacing:-0.04em;}.cls-2{letter-spacing:-0.02em;}.cls-3{letter-spacing:-0.03em;}.cls-4{letter-spacing:-0.03em;}.cls-5{letter-spacing:-0.02em;}.cls-6{fill:#336aea;}.cls-7{fill:#2e5bcc;}</style></defs><text class="cls-1" transform="translate(167.86 129.2)">w<tspan class="cls-2" x="116.69" y="0">a</tspan><tspan class="cls-3" x="194.06" y="0">p</tspan><tspan class="cls-2" x="278.68" y="0">2Nai</tspan><tspan class="cls-4" x="567.02" y="0">r</tspan><tspan class="cls-5" x="620.09" y="0">a</tspan></text><path d="M140.1,525.62" transform="translate(-107.34 -458.3)"/><path class="cls-6" d="M146.28,528.08l39.59,29.49-33.26,8.49c-24.67,6.29-45.7-8.1-45.26-32.88,0-1.21.11-2.39.22-3.62,2.18-24.14,22.92-47,46.61-53l24.74-6.31V503l-26.27,6.71C144.17,512,140.31,523.6,146.28,528.08Z" transform="translate(-107.34 -458.3)"/><path class="cls-7" d="M254.3,483.74h0L201,497.34V464.59l20.51-5.24C239.64,454.74,254.3,465.66,254.3,483.74Z" transform="translate(-107.34 -458.3)"/><path class="cls-6" d="M215.36,551.92l-39.59-29.49L209,513.94c24.67-6.29,45.7,8.1,45.26,32.88,0,1.21-.11,2.39-.22,3.62-2.18,24.14-22.92,47-46.61,53l-24.74,6.31V577L209,570.31C217.47,568,221.33,556.4,215.36,551.92Z" transform="translate(-107.34 -458.3)"/><path class="cls-7" d="M107.34,596.26h0l53.26-13.6v32.75l-20.51,5.24C122,625.26,107.34,614.34,107.34,596.26Z" transform="translate(-107.34 -458.3)"/></svg>